# xmcd
#
# Track frame offsets: 
#        150
#        18070
#        31430
#        51255
#        67230
#        90055
#        111858
#        126028
#        143823
#        159805
#
# Disc length: 2372 seconds
#
# Revision: 3
# Processed by: cddbd v1.5.2PL0 Copyright (c) Steve Scherf et al.
# Submitted via: ExactAudioCopy v1.3
#
DISCID=7709420a
DTITLE=Linda Ronstadt - Feels Like Home
DYEAR=1995
DGENRE=CountryRock
TTITLE0=The Waiting
TTITLE1=Walk On
TTITLE2=High Sierra
TTITLE3=After The Gold Rush
TTITLE4=The Blue Train
TTITLE5=Feels Like Home
TTITLE6=Teardrops Will Fall
TTITLE7=Morning Blues
TTITLE8=Women 'cross The River
TTITLE9=Lover's Return
EXTD=
EXTT0=
EXTT1=
EXTT2=
EXTT3=
EXTT4=
EXTT5=
EXTT6=
EXTT7=
EXTT8=
EXTT9=
PLAYORDER=
